<svg width="169" height="43" viewBox="0 0 169 43" fill="none" xmlns="http://www.w3.org/2000/svg">
<path fill-rule="evenodd" clip-rule="evenodd" d="M59.4443 4.78154H57.8591C57.7653 4.32558 57.6012 3.92501 57.3669 3.57984C57.1368 3.23467 56.8555 2.9449 56.5231 2.71052C56.195 2.47189 55.8306 2.29291 55.4301 2.17359C55.0295 2.05427 54.6119 1.99461 54.1772 1.99461C53.3846 1.99461 52.6666 2.1949 52.0231 2.59546C51.3839 2.99603 50.8747 3.58623 50.4954 4.36606C50.1204 5.14589 49.9329 6.10257 49.9329 7.23609C49.9329 8.36961 50.1204 9.32629 50.4954 10.1061C50.8747 10.8859 51.3839 11.4761 52.0231 11.8767C52.6666 12.2773 53.3846 12.4776 54.1772 12.4776C54.6119 12.4776 55.0295 12.4179 55.4301 12.2986C55.8306 12.1793 56.195 12.0024 56.5231 11.7681C56.8555 11.5294 57.1368 11.2375 57.3669 10.8923C57.6012 10.5429 57.7653 10.1423 57.8591 9.69064H59.4443C59.325 10.3597 59.1076 10.9584 58.7923 11.4868C58.477 12.0152 58.0849 12.4648 57.6162 12.8355C57.1474 13.202 56.6211 13.4811 56.0373 13.6729C55.4578 13.8646 54.8377 13.9605 54.1772 13.9605C53.0608 13.9605 52.0679 13.6878 51.1985 13.1423C50.3292 12.5969 49.6453 11.8213 49.1467 10.8156C48.6481 9.80995 48.3988 8.61677 48.3988 7.23609C48.3988 5.85541 48.6481 4.66223 49.1467 3.65654C49.6453 2.65086 50.3292 1.87529 51.1985 1.32984C52.0679 0.784385 53.0608 0.511658 54.1772 0.511658C54.8377 0.511658 55.4578 0.607538 56.0373 0.7993C56.6211 0.991061 57.1474 1.27231 57.6162 1.64305C58.0849 2.00953 58.477 2.45697 58.7923 2.98538C59.1076 3.50953 59.325 4.10825 59.4443 4.78154ZM62.0059 0.690635H66.4292C67.4519 0.690635 68.2914 0.865351 68.9477 1.21478C69.6039 1.55995 70.0897 2.0351 70.405 2.64021C70.7204 3.24532 70.8781 3.93353 70.8781 4.70484C70.8781 5.47615 70.7204 6.1601 70.405 6.75669C70.0897 7.35328 69.606 7.82203 68.954 8.16294C68.7914 8.24693 68.6174 8.32044 68.4322 8.38348L71.3894 13.7815H69.5485L66.7882 8.66159C66.6793 8.6658 66.5682 8.66791 66.4548 8.66791H63.5911V13.7815H62.0059V0.690635ZM66.4036 7.23609H63.5911V2.09689H66.3781C67.0854 2.09689 67.6543 2.20555 68.0847 2.42288C68.5151 2.63595 68.8283 2.9385 69.0244 3.33055C69.2204 3.7226 69.3184 4.18069 69.3184 4.70484C69.3184 5.22899 69.2204 5.68069 69.0244 6.05995C68.8326 6.43495 68.5215 6.72473 68.0911 6.92927C67.665 7.13382 67.1025 7.23609 66.4036 7.23609ZM84.565 7.23609C84.565 8.61677 84.3157 9.80995 83.8172 10.8156C83.3186 11.8213 82.6346 12.5969 81.7653 13.1423C80.896 13.6878 79.9031 13.9605 78.7866 13.9605C77.6701 13.9605 76.6772 13.6878 75.8079 13.1423C74.9386 12.5969 74.2547 11.8213 73.7561 10.8156C73.2575 9.80995 73.0082 8.61677 73.0082 7.23609C73.0082 5.85541 73.2575 4.66223 73.7561 3.65654C74.2547 2.65086 74.9386 1.87529 75.8079 1.32984C76.6772 0.784385 77.6701 0.511658 78.7866 0.511658C79.9031 0.511658 80.896 0.784385 81.7653 1.32984C82.6346 1.87529 83.3186 2.65086 83.8172 3.65654C84.3157 4.66223 84.565 5.85541 84.565 7.23609ZM83.0309 7.23609C83.0309 6.10257 82.8413 5.14589 82.462 4.36606C82.087 3.58623 81.5778 2.99603 80.9343 2.59546C80.2951 2.1949 79.5792 1.99461 78.7866 1.99461C77.994 1.99461 77.276 2.1949 76.6325 2.59546C75.9933 2.99603 75.4841 3.58623 75.1048 4.36606C74.7298 5.14589 74.5423 6.10257 74.5423 7.23609C74.5423 8.36961 74.7298 9.32629 75.1048 10.1061C75.4841 10.8859 75.9933 11.4761 76.6325 11.8767C77.276 12.2773 77.994 12.4776 78.7866 12.4776C79.5792 12.4776 80.2951 12.2773 80.9343 11.8767C81.5778 11.4761 82.087 10.8859 82.462 10.1061C82.8413 9.32629 83.0309 8.36961 83.0309 7.23609ZM94.3896 3.96336C94.3129 3.31564 94.0018 2.81279 93.4564 2.45484C92.9109 2.09689 92.2419 1.91791 91.4493 1.91791C90.8697 1.91791 90.3626 2.01166 89.9279 2.19916C89.4976 2.38666 89.1609 2.64447 88.918 2.9726C88.6794 3.30072 88.5601 3.67359 88.5601 4.0912C88.5601 4.44063 88.6432 4.74106 88.8093 4.99248C88.9798 5.23964 89.1971 5.44632 89.4613 5.61251C89.7255 5.77444 90.0025 5.90867 90.2923 6.01521C90.5821 6.11748 90.8484 6.20058 91.0913 6.2645L92.4208 6.62245C92.7618 6.71194 93.141 6.83552 93.5586 6.99319C93.9805 7.15086 94.3832 7.36606 94.7667 7.63879C95.1545 7.90725 95.4741 8.25243 95.7255 8.6743C95.977 9.09618 96.1027 9.61393 96.1027 10.2276C96.1027 10.935 95.9173 11.5742 95.5466 12.1452C95.1801 12.7162 94.6432 13.17 93.9358 13.5067C93.2326 13.8433 92.3782 14.0117 91.3726 14.0117C90.4351 14.0117 89.6233 13.8604 88.9372 13.5578C88.2554 13.2553 87.7184 12.8334 87.3264 12.2922C86.9386 11.751 86.7191 11.1225 86.668 10.4065H88.3044C88.347 10.9009 88.5132 11.31 88.8029 11.6338C89.097 11.9534 89.4677 12.1921 89.9152 12.3497C90.3669 12.5031 90.8527 12.5798 91.3726 12.5798C91.9777 12.5798 92.521 12.4818 93.0025 12.2858C93.4841 12.0855 93.8654 11.8085 94.1467 11.4548C94.4279 11.0969 94.5686 10.6793 94.5686 10.202C94.5686 9.76734 94.4471 9.41365 94.2042 9.14092C93.9613 8.86819 93.6417 8.6466 93.2454 8.47615C92.8491 8.30569 92.4208 8.15654 91.9606 8.0287L90.3498 7.56848C89.3271 7.27444 88.5174 6.8547 87.9208 6.30924C87.3243 5.76379 87.026 5.05001 87.026 4.16791C87.026 3.43495 87.2241 2.79575 87.6204 2.25029C88.021 1.70058 88.5579 1.27444 89.2312 0.971885C89.9088 0.665067 90.6652 0.511658 91.5004 0.511658C92.3441 0.511658 93.0941 0.662936 93.7504 0.965493C94.4066 1.26379 94.9265 1.67288 95.3101 2.19277C95.6978 2.71265 95.9024 3.30285 95.9237 3.96336H94.3896ZM105.868 3.96336C105.791 3.31564 105.48 2.81279 104.935 2.45484C104.389 2.09689 103.72 1.91791 102.928 1.91791C102.348 1.91791 101.841 2.01166 101.406 2.19916C100.976 2.38666 100.639 2.64447 100.397 2.9726C100.158 3.30072 100.039 3.67359 100.039 4.0912C100.039 4.44063 100.122 4.74106 100.288 4.99248C100.458 5.23964 100.676 5.44632 100.94 5.61251C101.204 5.77444 101.481 5.90867 101.771 6.01521C102.061 6.11748 102.327 6.20058 102.57 6.2645L103.899 6.62245C104.24 6.71194 104.62 6.83552 105.037 6.99319C105.459 7.15086 105.862 7.36606 106.245 7.63879C106.633 7.90725 106.953 8.25243 107.204 8.6743C107.455 9.09618 107.581 9.61393 107.581 10.2276C107.581 10.935 107.396 11.5742 107.025 12.1452C106.659 12.7162 106.122 13.17 105.414 13.5067C104.711 13.8433 103.857 14.0117 102.851 14.0117C101.914 14.0117 101.102 13.8604 100.416 13.5578C99.7339 13.2553 99.1969 12.8334 98.8049 12.2922C98.4171 11.751 98.1977 11.1225 98.1465 10.4065H99.7829C99.8255 10.9009 99.9917 11.31 100.281 11.6338C100.576 11.9534 100.946 12.1921 101.394 12.3497C101.845 12.5031 102.331 12.5798 102.851 12.5798C103.456 12.5798 104 12.4818 104.481 12.2858C104.963 12.0855 105.344 11.8085 105.625 11.4548C105.906 11.0969 106.047 10.6793 106.047 10.202C106.047 9.76734 105.926 9.41365 105.683 9.14092C105.44 8.86819 105.12 8.6466 104.724 8.47615C104.328 8.30569 103.899 8.15654 103.439 8.0287L101.828 7.56848C100.806 7.27444 99.996 6.8547 99.3994 6.30924C98.8028 5.76379 98.5045 5.05001 98.5045 4.16791C98.5045 3.43495 98.7026 2.79575 99.0989 2.25029C99.4995 1.70058 100.036 1.27444 100.71 0.971885C101.387 0.665067 102.144 0.511658 102.979 0.511658C103.823 0.511658 104.573 0.662936 105.229 0.965493C105.885 1.26379 106.405 1.67288 106.789 2.19277C107.176 2.71265 107.381 3.30285 107.402 3.96336H105.868ZM110.188 0.690635H114.611C115.634 0.690635 116.473 0.865351 117.129 1.21478C117.786 1.55995 118.271 2.0351 118.587 2.64021C118.902 3.24532 119.06 3.93353 119.06 4.70484C119.06 5.47615 118.902 6.1601 118.587 6.75669C118.271 7.35328 117.788 7.82203 117.136 8.16294C116.973 8.24693 116.799 8.32044 116.614 8.38348L119.571 13.7815H117.73L114.97 8.66159C114.861 8.6658 114.75 8.66791 114.636 8.66791H111.773V13.7815H110.188V0.690635ZM114.585 7.23609H111.773V2.09689H114.56C115.267 2.09689 115.836 2.20555 116.266 2.42288C116.697 2.63595 117.01 2.9385 117.206 3.33055C117.402 3.7226 117.5 4.18069 117.5 4.70484C117.5 5.22899 117.402 5.68069 117.206 6.05995C117.014 6.43495 116.703 6.72473 116.273 6.92927C115.847 7.13382 115.284 7.23609 114.585 7.23609ZM132.747 7.23609C132.747 8.61677 132.497 9.80995 131.999 10.8156C131.5 11.8213 130.816 12.5969 129.947 13.1423C129.078 13.6878 128.085 13.9605 126.968 13.9605C125.852 13.9605 124.859 13.6878 123.99 13.1423C123.12 12.5969 122.436 11.8213 121.938 10.8156C121.439 9.80995 121.19 8.61677 121.19 7.23609C121.19 5.85541 121.439 4.66223 121.938 3.65654C122.436 2.65086 123.12 1.87529 123.99 1.32984C124.859 0.784385 125.852 0.511658 126.968 0.511658C128.085 0.511658 129.078 0.784385 129.947 1.32984C130.816 1.87529 131.5 2.65086 131.999 3.65654C132.497 4.66223 132.747 5.85541 132.747 7.23609ZM131.213 7.23609C131.213 6.10257 131.023 5.14589 130.644 4.36606C130.269 3.58623 129.759 2.99603 129.116 2.59546C128.477 2.1949 127.761 1.99461 126.968 1.99461C126.176 1.99461 125.458 2.1949 124.814 2.59546C124.175 2.99603 123.666 3.58623 123.286 4.36606C122.911 5.14589 122.724 6.10257 122.724 7.23609C122.724 8.36961 122.911 9.32629 123.286 10.1061C123.666 10.8859 124.175 11.4761 124.814 11.8767C125.458 12.2773 126.176 12.4776 126.968 12.4776C127.761 12.4776 128.477 12.2773 129.116 11.8767C129.759 11.4761 130.269 10.8859 130.644 10.1061C131.023 9.32629 131.213 8.36961 131.213 7.23609ZM135.334 13.7815H133.672L138.479 0.690635H140.115L144.922 13.7815H143.26L141.944 10.0742H136.65L135.334 13.7815ZM139.348 2.76166L141.445 8.66791H137.149L139.246 2.76166H139.348ZM151.001 13.7815H146.961V0.690635H151.18C152.45 0.690635 153.536 0.952709 154.44 1.47686C155.343 1.99674 156.036 2.74461 156.517 3.72046C156.999 4.69206 157.239 5.85541 157.239 7.21052C157.239 8.57416 156.996 9.74816 156.511 10.7325C156.025 11.7127 155.318 12.4669 154.389 12.9953C153.46 13.5195 152.33 13.7815 151.001 13.7815ZM148.546 12.3753H150.898C151.981 12.3753 152.878 12.1665 153.59 11.7489C154.301 11.3313 154.832 10.7368 155.181 9.96549C155.531 9.19419 155.705 8.27586 155.705 7.21052C155.705 6.1537 155.533 5.2439 155.188 4.48112C154.842 3.71407 154.327 3.126 153.641 2.71691C152.955 2.30356 152.1 2.09689 151.077 2.09689H148.546V12.3753ZM167.058 3.96336C166.981 3.31564 166.67 2.81279 166.124 2.45484C165.579 2.09689 164.91 1.91791 164.117 1.91791C163.538 1.91791 163.031 2.01166 162.596 2.19916C162.166 2.38666 161.829 2.64447 161.586 2.9726C161.347 3.30072 161.228 3.67359 161.228 4.0912C161.228 4.44063 161.311 4.74106 161.477 4.99248C161.648 5.23964 161.865 5.44632 162.129 5.61251C162.394 5.77444 162.67 5.90867 162.96 6.01521C163.25 6.11748 163.516 6.20058 163.759 6.2645L165.089 6.62245C165.43 6.71194 165.809 6.83552 166.227 6.99319C166.648 7.15086 167.051 7.36606 167.435 7.63879C167.822 7.90725 168.142 8.25243 168.394 8.6743C168.645 9.09618 168.771 9.61393 168.771 10.2276C168.771 10.935 168.585 11.5742 168.215 12.1452C167.848 12.7162 167.311 13.17 166.604 13.5067C165.901 13.8433 165.046 14.0117 164.041 14.0117C163.103 14.0117 162.291 13.8604 161.605 13.5578C160.923 13.2553 160.386 12.8334 159.994 12.2922C159.607 11.751 159.387 11.1225 159.336 10.4065H160.972C161.015 10.9009 161.181 11.31 161.471 11.6338C161.765 11.9534 162.136 12.1921 162.583 12.3497C163.035 12.5031 163.521 12.5798 164.041 12.5798C164.646 12.5798 165.189 12.4818 165.67 12.2858C166.152 12.0855 166.533 11.8085 166.815 11.4548C167.096 11.0969 167.237 10.6793 167.237 10.202C167.237 9.76734 167.115 9.41365 166.872 9.14092C166.629 8.86819 166.31 8.6466 165.913 8.47615C165.517 8.30569 165.089 8.15654 164.629 8.0287L163.018 7.56848C161.995 7.27444 161.185 6.8547 160.589 6.30924C159.992 5.76379 159.694 5.05001 159.694 4.16791C159.694 3.43495 159.892 2.79575 160.288 2.25029C160.689 1.70058 161.226 1.27444 161.899 0.971885C162.577 0.665067 163.333 0.511658 164.168 0.511658C165.012 0.511658 165.762 0.662936 166.418 0.965493C167.075 1.26379 167.594 1.67288 167.978 2.19277C168.366 2.71265 168.57 3.30285 168.592 3.96336H167.058ZM13.7267 0.731551H14.0548L23.1846 9.38763L32.3145 0.731551H32.3637V9.23375L23.1846 17.9365L13.7267 8.96935V0.731551ZM0.974976 30.4915V30.1804L10.1048 21.5244L0.974976 12.8683V12.8215H9.94249L19.1216 21.5244L9.66365 30.4915H0.974976ZM44.625 13.1327V12.8215H35.9363L26.4783 21.7887L35.6574 30.4915H44.625V30.4448L35.4951 21.7887L44.625 13.1327ZM48.075 19.1049H168.825V40.8549H48.075V19.1049ZM32.0356 42.5815H32.3637V34.3437L22.9058 25.3765L13.7267 34.0793V42.5815H13.7759L22.9058 33.9255L32.0356 42.5815ZM52.8187 24.1707V37.2617H61.6653V34.398H56.3727V24.1707H52.8187ZM76.4038 34.4044C76.9706 33.403 77.254 32.1736 77.254 30.7162C77.254 29.2588 76.9706 28.0315 76.4038 27.0344C75.8371 26.033 75.0722 25.2766 74.1091 24.7652C73.146 24.2496 72.0722 23.9918 70.8875 23.9918C69.6943 23.9918 68.6162 24.2496 67.6531 24.7652C66.6943 25.2766 65.9315 26.033 65.3648 27.0344C64.8023 28.0315 64.521 29.2588 64.521 30.7162C64.521 32.1651 64.8023 33.3902 65.3648 34.3916C65.9315 35.3888 66.6943 36.1473 67.6531 36.6672C68.6162 37.1828 69.6943 37.4406 70.8875 37.4406C72.0722 37.4406 73.146 37.185 74.1091 36.6736C75.0722 36.158 75.8371 35.4016 76.4038 34.4044ZM73.2845 28.7347C73.4933 29.2716 73.5977 29.9321 73.5977 30.7162C73.5977 31.5003 73.4933 32.1629 73.2845 32.7041C73.08 33.2411 72.7753 33.6502 72.3705 33.9314C71.9699 34.2084 71.4756 34.3469 70.8875 34.3469C70.2994 34.3469 69.803 34.2084 69.3982 33.9314C68.9976 33.6502 68.6929 33.2411 68.4841 32.7041C68.2796 32.1629 68.1773 31.5003 68.1773 30.7162C68.1773 29.9321 68.2796 29.2716 68.4841 28.7347C68.6929 28.1935 68.9976 27.7844 69.3982 27.5074C69.803 27.2261 70.2994 27.0855 70.8875 27.0855C71.4756 27.0855 71.9699 27.2261 72.3705 27.5074C72.7753 27.7844 73.08 28.1935 73.2845 28.7347ZM89.1177 27.8973C89.237 28.0678 89.3244 28.2659 89.3798 28.4918H92.9721C92.9039 27.8355 92.7122 27.2325 92.3968 26.6828C92.0815 26.1331 91.666 25.658 91.1504 25.2574C90.639 24.8526 90.0488 24.5415 89.3798 24.3242C88.715 24.1026 87.9948 23.9918 87.2193 23.9918C86.3372 23.9918 85.5104 24.1409 84.7391 24.4392C83.9678 24.7332 83.2881 25.17 82.7001 25.7496C82.112 26.3249 81.6518 27.0301 81.3194 27.8654C80.9913 28.7006 80.8272 29.6594 80.8272 30.7418C80.8272 32.1225 81.0957 33.3135 81.6326 34.3149C82.1738 35.3163 82.9259 36.0877 83.889 36.6288C84.8521 37.17 85.9707 37.4406 87.2448 37.4406C88.3869 37.4406 89.3989 37.2169 90.281 36.7695C91.1674 36.3178 91.862 35.67 92.3648 34.8263C92.8719 33.9783 93.1255 32.9577 93.1255 31.7645V29.9492H87.3215V32.4804H89.6986C89.6893 32.8457 89.6001 33.1653 89.4309 33.4392C89.2519 33.729 88.9813 33.9527 88.6191 34.1104C88.2612 34.2681 87.8116 34.3469 87.2704 34.3469C86.6568 34.3469 86.1433 34.202 85.7299 33.9122C85.3166 33.6225 85.0055 33.2048 84.7967 32.6594C84.5879 32.1139 84.4835 31.4577 84.4835 30.6906C84.4835 29.9321 84.5921 29.2844 84.8094 28.7475C85.031 28.2105 85.3506 27.7993 85.7683 27.5138C86.1901 27.2283 86.6994 27.0855 87.296 27.0855C87.5729 27.0855 87.8265 27.1175 88.0566 27.1814C88.291 27.2411 88.4955 27.3327 88.6702 27.4563C88.8492 27.5756 88.9984 27.7226 89.1177 27.8973ZM100.317 37.2617V24.1707H96.7626V37.2617H100.317ZM110.558 27.2645C110.844 27.5031 111.004 27.8355 111.038 28.2617H114.438C114.434 27.4051 114.221 26.6573 113.799 26.0181C113.381 25.3746 112.787 24.876 112.016 24.5223C111.244 24.1686 110.33 23.9918 109.274 23.9918C108.238 23.9918 107.32 24.1665 106.519 24.5159C105.722 24.8654 105.097 25.3533 104.646 25.9797C104.198 26.6019 103.977 27.3284 103.981 28.1594C103.977 29.1821 104.307 29.9896 104.972 30.582C105.641 31.17 106.555 31.5898 107.714 31.8412L109.018 32.1225C109.504 32.229 109.889 32.344 110.175 32.4676C110.46 32.5869 110.665 32.7233 110.788 32.8767C110.916 33.0259 110.982 33.2006 110.987 33.4009C110.982 33.6139 110.914 33.8036 110.782 33.9698C110.65 34.1359 110.456 34.2659 110.2 34.3597C109.945 34.4534 109.627 34.5003 109.248 34.5003C108.796 34.5003 108.406 34.43 108.078 34.2894C107.754 34.1487 107.503 33.9421 107.324 33.6693C107.145 33.3966 107.045 33.06 107.024 32.6594H103.649C103.653 33.7546 103.887 34.6537 104.352 35.3568C104.82 36.0557 105.477 36.5734 106.32 36.9101C107.168 37.2467 108.161 37.4151 109.299 37.4151C110.407 37.4151 111.355 37.2595 112.144 36.9484C112.936 36.6374 113.546 36.1835 113.972 35.5869C114.398 34.9904 114.613 34.2617 114.617 33.4009C114.613 32.9023 114.532 32.4421 114.374 32.0202C114.221 31.5983 113.98 31.219 113.652 30.8824C113.324 30.5415 112.902 30.2453 112.386 29.9939C111.871 29.7425 111.251 29.5401 110.526 29.3867L109.453 29.1565C109.141 29.0926 108.873 29.0202 108.647 28.9392C108.421 28.8582 108.236 28.7688 108.091 28.6707C107.946 28.5685 107.84 28.4556 107.771 28.332C107.707 28.2041 107.68 28.0614 107.688 27.9037C107.693 27.7119 107.75 27.5415 107.861 27.3923C107.972 27.2432 108.142 27.126 108.372 27.0408C108.607 26.9513 108.907 26.9065 109.274 26.9065C109.849 26.9065 110.277 27.0259 110.558 27.2645ZM117.591 24.1707V27.0344H121.529V37.2617H125.032V27.0344H128.969V24.1707H117.591ZM135.841 37.2617V24.1707H132.287V37.2617H135.841ZM148.121 29.0798H151.727C151.658 28.2659 151.464 27.5436 151.145 26.9129C150.825 26.2823 150.403 25.7517 149.879 25.3213C149.355 24.8867 148.746 24.5564 148.051 24.3306C147.356 24.1047 146.596 23.9918 145.769 23.9918C144.593 23.9918 143.528 24.2496 142.573 24.7652C141.619 25.2766 140.86 26.033 140.298 27.0344C139.735 28.0315 139.454 29.2588 139.454 30.7162C139.454 32.1651 139.729 33.3902 140.278 34.3916C140.832 35.3931 141.584 36.1516 142.535 36.6672C143.489 37.1828 144.567 37.4406 145.769 37.4406C146.728 37.4406 147.57 37.2936 148.294 36.9996C149.018 36.7056 149.626 36.3178 150.116 35.8362C150.61 35.3504 150.991 34.822 151.26 34.251C151.528 33.6757 151.684 33.1111 151.727 32.5571L148.121 32.5315C148.079 32.8128 147.996 33.0663 147.872 33.2922C147.753 33.5138 147.597 33.7034 147.405 33.8611C147.214 34.0188 146.988 34.1402 146.728 34.2254C146.468 34.3064 146.174 34.3469 145.846 34.3469C145.271 34.3469 144.778 34.2127 144.369 33.9442C143.96 33.6715 143.647 33.2666 143.43 32.7297C143.217 32.1885 143.11 31.5173 143.11 30.7162C143.11 29.9577 143.214 29.3078 143.423 28.7666C143.636 28.2254 143.947 27.81 144.356 27.5202C144.77 27.2304 145.275 27.0855 145.871 27.0855C146.212 27.0855 146.517 27.1345 146.785 27.2325C147.054 27.3263 147.282 27.4627 147.469 27.6416C147.661 27.8163 147.81 28.0252 147.917 28.2681C148.028 28.5109 148.096 28.7815 148.121 29.0798ZM161.896 27.2645C162.182 27.5031 162.342 27.8355 162.376 28.2617H165.776C165.772 27.4051 165.559 26.6573 165.137 26.0181C164.719 25.3746 164.125 24.876 163.354 24.5223C162.582 24.1686 161.668 23.9918 160.611 23.9918C159.576 23.9918 158.658 24.1665 157.857 24.5159C157.06 24.8654 156.435 25.3533 155.984 25.9797C155.536 26.6019 155.315 27.3284 155.319 28.1594C155.315 29.1821 155.645 29.9896 156.31 30.582C156.979 31.17 157.893 31.5898 159.052 31.8412L160.356 32.1225C160.842 32.229 161.227 32.344 161.513 32.4676C161.798 32.5869 162.003 32.7233 162.126 32.8767C162.254 33.0259 162.32 33.2006 162.325 33.4009C162.32 33.6139 162.252 33.8036 162.12 33.9698C161.988 34.1359 161.794 34.2659 161.538 34.3597C161.283 34.4534 160.965 34.5003 160.586 34.5003C160.134 34.5003 159.744 34.43 159.416 34.2894C159.092 34.1487 158.841 33.9421 158.662 33.6693C158.483 33.3966 158.383 33.06 158.361 32.6594H154.986C154.991 33.7546 155.225 34.6537 155.69 35.3568C156.158 36.0557 156.815 36.5734 157.658 36.9101C158.506 37.2467 159.499 37.4151 160.637 37.4151C161.745 37.4151 162.693 37.2595 163.482 36.9484C164.274 36.6374 164.884 36.1835 165.31 35.5869C165.736 34.9904 165.951 34.2617 165.955 33.4009C165.951 32.9023 165.87 32.4421 165.712 32.0202C165.559 31.5983 165.318 31.219 164.99 30.8824C164.662 30.5415 164.24 30.2453 163.724 29.9939C163.209 29.7425 162.589 29.5401 161.864 29.3867L160.79 29.1565C160.479 29.0926 160.211 29.0202 159.985 28.9392C159.759 28.8582 159.574 28.7688 159.429 28.6707C159.284 28.5685 159.178 28.4556 159.109 28.332C159.045 28.2041 159.018 28.0614 159.026 27.9037C159.031 27.7119 159.088 27.5415 159.199 27.3923C159.31 27.2432 159.48 27.126 159.71 27.0408C159.945 26.9513 160.245 26.9065 160.611 26.9065C161.187 26.9065 161.615 27.0259 161.896 27.2645Z" fill="#F97316"/>
</svg>
