<svg width="113" height="29" viewBox="0 0 113 29" fill="none" xmlns="http://www.w3.org/2000/svg">
<path fill-rule="evenodd" clip-rule="evenodd" d="M39.9296 3.36988H38.8727C38.8102 3.0659 38.7009 2.79885 38.5446 2.56874C38.3912 2.33863 38.2037 2.14544 37.9821 1.98919C37.7634 1.8301 37.5205 1.71079 37.2534 1.63124C36.9864 1.55169 36.708 1.51192 36.4182 1.51192C35.8898 1.51192 35.4111 1.64544 34.9821 1.91249C34.556 2.17954 34.2165 2.573 33.9636 3.09289C33.7136 3.61277 33.5886 4.25056 33.5886 5.00624C33.5886 5.76192 33.7136 6.39971 33.9636 6.91959C34.2165 7.43948 34.556 7.83294 34.9821 8.09999C35.4111 8.36704 35.8898 8.50056 36.4182 8.50056C36.708 8.50056 36.9864 8.46079 37.2534 8.38124C37.5205 8.30169 37.7634 8.1838 37.9821 8.02755C38.2037 7.86846 38.3912 7.67385 38.5446 7.44374C38.7009 7.21079 38.8102 6.94374 38.8727 6.6426H39.9296C39.85 7.08863 39.7051 7.48777 39.4949 7.84005C39.2847 8.19232 39.0233 8.49204 38.7108 8.73919C38.3983 8.98351 38.0475 9.16959 37.6582 9.29743C37.2719 9.42527 36.8585 9.48919 36.4182 9.48919C35.6739 9.48919 35.0119 9.30738 34.4324 8.94374C33.8528 8.5801 33.3969 8.06306 33.0645 7.3926C32.7321 6.72215 32.5659 5.92669 32.5659 5.00624C32.5659 4.08579 32.7321 3.29033 33.0645 2.61988C33.3969 1.94942 33.8528 1.43238 34.4324 1.06874C35.0119 0.705103 35.6739 0.523285 36.4182 0.523285C36.8585 0.523285 37.2719 0.587205 37.6582 0.715046C38.0475 0.842887 38.3983 1.03039 38.7108 1.27755C39.0233 1.52186 39.2847 1.82016 39.4949 2.17243C39.7051 2.52186 39.85 2.92101 39.9296 3.36988ZM41.6373 0.642603H44.5862C45.268 0.642603 45.8276 0.75908 46.2651 0.992035C46.7026 1.22215 47.0265 1.53891 47.2367 1.94232C47.447 2.34573 47.5521 2.80454 47.5521 3.31874C47.5521 3.83294 47.447 4.28891 47.2367 4.68664C47.0265 5.08436 46.7041 5.39686 46.2694 5.62414C46.1609 5.68013 46.045 5.72914 45.9215 5.77117L47.893 9.36988H46.6657L44.8255 5.95658C44.7529 5.95938 44.6788 5.96079 44.6032 5.96079H42.6941V9.36988H41.6373V0.642603ZM44.5691 5.00624H42.6941V1.5801H44.5521C45.0237 1.5801 45.4029 1.65255 45.6898 1.79743C45.9768 1.93948 46.1856 2.14118 46.3163 2.40255C46.447 2.66391 46.5123 2.96931 46.5123 3.31874C46.5123 3.66817 46.447 3.96931 46.3163 4.22215C46.1884 4.47215 45.981 4.66533 45.6941 4.80169C45.41 4.93806 45.035 5.00624 44.5691 5.00624ZM56.6767 5.00624C56.6767 5.92669 56.5105 6.72215 56.1781 7.3926C55.8457 8.06306 55.3898 8.5801 54.8102 8.94374C54.2307 9.30738 53.5688 9.48919 52.8244 9.48919C52.0801 9.48919 51.4182 9.30738 50.8386 8.94374C50.2591 8.5801 49.8031 8.06306 49.4707 7.3926C49.1384 6.72215 48.9722 5.92669 48.9722 5.00624C48.9722 4.08579 49.1384 3.29033 49.4707 2.61988C49.8031 1.94942 50.2591 1.43238 50.8386 1.06874C51.4182 0.705103 52.0801 0.523285 52.8244 0.523285C53.5688 0.523285 54.2307 0.705103 54.8102 1.06874C55.3898 1.43238 55.8457 1.94942 56.1781 2.61988C56.5105 3.29033 56.6767 4.08579 56.6767 5.00624ZM55.654 5.00624C55.654 4.25056 55.5276 3.61277 55.2747 3.09289C55.0247 2.573 54.6852 2.17954 54.2563 1.91249C53.8301 1.64544 53.3528 1.51192 52.8244 1.51192C52.296 1.51192 51.8173 1.64544 51.3884 1.91249C50.9622 2.17954 50.6227 2.573 50.3699 3.09289C50.1199 3.61277 49.9949 4.25056 49.9949 5.00624C49.9949 5.76192 50.1199 6.39971 50.3699 6.91959C50.6227 7.43948 50.9622 7.83294 51.3884 8.09999C51.8173 8.36704 52.296 8.50056 52.8244 8.50056C53.3528 8.50056 53.8301 8.36704 54.2563 8.09999C54.6852 7.83294 55.0247 7.43948 55.2747 6.91959C55.5276 6.39971 55.654 5.76192 55.654 5.00624ZM63.2264 2.82442C63.1753 2.3926 62.9679 2.05738 62.6043 1.81874C62.2406 1.5801 61.7946 1.46078 61.2662 1.46078C60.8798 1.46078 60.5418 1.52328 60.252 1.64828C59.9651 1.77328 59.7406 1.94516 59.5787 2.16391C59.4196 2.38266 59.3401 2.63124 59.3401 2.90965C59.3401 3.1426 59.3955 3.34289 59.5063 3.5105C59.6199 3.67527 59.7648 3.81306 59.9409 3.92385C60.1171 4.03181 60.3017 4.1213 60.4949 4.19232C60.6881 4.2605 60.8656 4.3159 61.0276 4.35851L61.9139 4.59715C62.1412 4.65681 62.394 4.73919 62.6725 4.84431C62.9537 4.94942 63.2222 5.09289 63.4778 5.27471C63.7364 5.45368 63.9494 5.6838 64.1171 5.96505C64.2847 6.2463 64.3685 6.59147 64.3685 7.00056C64.3685 7.47215 64.2449 7.89829 63.9977 8.27897C63.7534 8.65965 63.3955 8.96221 62.9239 9.18664C62.4551 9.41107 61.8855 9.52329 61.2151 9.52329C60.5901 9.52329 60.0489 9.42243 59.5915 9.22073C59.1369 9.01902 58.779 8.73777 58.5176 8.37698C58.2591 8.01618 58.1128 7.59715 58.0787 7.11988H59.1696C59.198 7.44942 59.3088 7.72215 59.502 7.93806C59.698 8.15113 59.9452 8.31022 60.2435 8.41533C60.5446 8.5176 60.8685 8.56874 61.2151 8.56874C61.6185 8.56874 61.9807 8.5034 62.3017 8.37272C62.6227 8.23919 62.877 8.05454 63.0645 7.81874C63.252 7.5801 63.3457 7.30169 63.3457 6.98351C63.3457 6.69374 63.2648 6.45794 63.1028 6.27613C62.9409 6.09431 62.7278 5.94658 62.4636 5.83294C62.1994 5.71931 61.9139 5.61988 61.6071 5.53465L60.5332 5.22783C59.8514 5.03181 59.3117 4.75198 58.9139 4.38834C58.5162 4.02471 58.3173 3.54885 58.3173 2.96078C58.3173 2.47215 58.4494 2.04601 58.7136 1.68238C58.9807 1.3159 59.3386 1.03181 59.7875 0.830103C60.2392 0.625558 60.7435 0.523285 61.3003 0.523285C61.8628 0.523285 62.3628 0.624137 62.8003 0.825842C63.2378 1.02471 63.5844 1.29743 63.8401 1.64402C64.0986 1.99061 64.235 2.38408 64.2492 2.82442H63.2264ZM70.8788 2.82442C70.8276 2.3926 70.6203 2.05738 70.2566 1.81874C69.893 1.5801 69.4469 1.46078 68.9185 1.46078C68.5322 1.46078 68.1941 1.52328 67.9043 1.64828C67.6174 1.77328 67.393 1.94516 67.231 2.16391C67.0719 2.38266 66.9924 2.63124 66.9924 2.90965C66.9924 3.1426 67.0478 3.34289 67.1586 3.5105C67.2722 3.67527 67.4171 3.81306 67.5933 3.92385C67.7694 4.03181 67.9541 4.1213 68.1472 4.19232C68.3404 4.2605 68.518 4.3159 68.6799 4.35851L69.5663 4.59715C69.7935 4.65681 70.0464 4.73919 70.3248 4.84431C70.606 4.94942 70.8745 5.09289 71.1302 5.27471C71.3887 5.45368 71.6018 5.6838 71.7694 5.96505C71.937 6.2463 72.0208 6.59147 72.0208 7.00056C72.0208 7.47215 71.8972 7.89829 71.6501 8.27897C71.4058 8.65965 71.0478 8.96221 70.5762 9.18664C70.1075 9.41107 69.5379 9.52329 68.8674 9.52329C68.2424 9.52329 67.7012 9.42243 67.2438 9.22073C66.7893 9.01902 66.4313 8.73777 66.17 8.37698C65.9114 8.01618 65.7651 7.59715 65.731 7.11988H66.8219C66.8504 7.44942 66.9612 7.72215 67.1543 7.93806C67.3504 8.15113 67.5975 8.31022 67.8958 8.41533C68.1969 8.5176 68.5208 8.56874 68.8674 8.56874C69.2708 8.56874 69.633 8.5034 69.9541 8.37272C70.2751 8.23919 70.5293 8.05454 70.7168 7.81874C70.9043 7.5801 70.9981 7.30169 70.9981 6.98351C70.9981 6.69374 70.9171 6.45794 70.7552 6.27613C70.5933 6.09431 70.3802 5.94658 70.116 5.83294C69.8518 5.71931 69.5663 5.61988 69.2594 5.53465L68.1856 5.22783C67.5038 5.03181 66.964 4.75198 66.5663 4.38834C66.1685 4.02471 65.9697 3.54885 65.9697 2.96078C65.9697 2.47215 66.1018 2.04601 66.366 1.68238C66.633 1.3159 66.991 1.03181 67.4399 0.830103C67.8916 0.625558 68.3958 0.523285 68.9526 0.523285C69.5151 0.523285 70.0151 0.624137 70.4526 0.825842C70.8901 1.02471 71.2367 1.29743 71.4924 1.64402C71.7509 1.99061 71.8873 2.38408 71.9015 2.82442H70.8788ZM73.7584 0.642603H76.7072C77.3891 0.642603 77.9487 0.75908 78.3862 0.992035C78.8237 1.22215 79.1476 1.53891 79.3578 1.94232C79.568 2.34573 79.6732 2.80454 79.6732 3.31874C79.6732 3.83294 79.568 4.28891 79.3578 4.68664C79.1476 5.08436 78.8251 5.39686 78.3905 5.62414C78.282 5.68013 78.1661 5.72914 78.0426 5.77117L80.0141 9.36988H78.7868L76.9466 5.95658C76.874 5.95938 76.7999 5.96079 76.7243 5.96079H74.8152V9.36988H73.7584V0.642603ZM76.6902 5.00624H74.8152V1.5801H76.6732C77.1447 1.5801 77.524 1.65255 77.8109 1.79743C78.0979 1.93948 78.3067 2.14118 78.4374 2.40255C78.568 2.66391 78.6334 2.96931 78.6334 3.31874C78.6334 3.66817 78.568 3.96931 78.4374 4.22215C78.3095 4.47215 78.1021 4.66533 77.8152 4.80169C77.5311 4.93806 77.1561 5.00624 76.6902 5.00624ZM88.7978 5.00624C88.7978 5.92669 88.6316 6.72215 88.2992 7.3926C87.9668 8.06306 87.5109 8.5801 86.9313 8.94374C86.3518 9.30738 85.6899 9.48919 84.9455 9.48919C84.2012 9.48919 83.5393 9.30738 82.9597 8.94374C82.3802 8.5801 81.9242 8.06306 81.5918 7.3926C81.2594 6.72215 81.0933 5.92669 81.0933 5.00624C81.0933 4.08579 81.2594 3.29033 81.5918 2.61988C81.9242 1.94942 82.3802 1.43238 82.9597 1.06874C83.5393 0.705103 84.2012 0.523285 84.9455 0.523285C85.6899 0.523285 86.3518 0.705103 86.9313 1.06874C87.5109 1.43238 87.9668 1.94942 88.2992 2.61988C88.6316 3.29033 88.7978 4.08579 88.7978 5.00624ZM87.7751 5.00624C87.7751 4.25056 87.6487 3.61277 87.3958 3.09289C87.1458 2.573 86.8063 2.17954 86.3774 1.91249C85.9512 1.64544 85.4739 1.51192 84.9455 1.51192C84.4171 1.51192 83.9384 1.64544 83.5094 1.91249C83.0833 2.17954 82.7438 2.573 82.491 3.09289C82.241 3.61277 82.116 4.25056 82.116 5.00624C82.116 5.76192 82.241 6.39971 82.491 6.91959C82.7438 7.43948 83.0833 7.83294 83.5094 8.09999C83.9384 8.36704 84.4171 8.50056 84.9455 8.50056C85.4739 8.50056 85.9512 8.36704 86.3774 8.09999C86.8063 7.83294 87.1458 7.43948 87.3958 6.91959C87.6487 6.39971 87.7751 5.76192 87.7751 5.00624ZM90.5226 9.36988H89.4146L92.6192 0.642603H93.7101L96.9146 9.36988H95.8067L94.9293 6.89829H91.4L90.5226 9.36988ZM93.1987 2.02328L94.5965 5.96079H91.7328L93.1305 2.02328H93.1987ZM100.967 9.36988H98.274V0.642603H101.087C101.933 0.642603 102.658 0.817319 103.26 1.16675C103.862 1.51334 104.324 2.01192 104.645 2.66249C104.966 3.31022 105.126 4.08579 105.126 4.98919C105.126 5.89829 104.964 6.68096 104.64 7.33721C104.317 7.99061 103.845 8.49346 103.226 8.84573C102.606 9.19516 101.854 9.36988 100.967 9.36988ZM99.3308 8.43238H100.899C101.621 8.43238 102.219 8.29317 102.693 8.01476C103.167 7.73635 103.521 7.34005 103.754 6.82584C103.987 6.31164 104.104 5.69942 104.104 4.98919C104.104 4.28465 103.988 3.67811 103.758 3.16959C103.528 2.65823 103.185 2.26618 102.727 1.99346C102.27 1.71789 101.7 1.5801 101.018 1.5801H99.3308V8.43238ZM111.672 2.82442C111.621 2.3926 111.413 2.05738 111.05 1.81874C110.686 1.5801 110.24 1.46078 109.712 1.46078C109.325 1.46078 108.987 1.52328 108.697 1.64828C108.41 1.77328 108.186 1.94516 108.024 2.16391C107.865 2.38266 107.785 2.63124 107.785 2.90965C107.785 3.1426 107.841 3.34289 107.952 3.5105C108.065 3.67527 108.21 3.81306 108.386 3.92385C108.562 4.03181 108.747 4.1213 108.94 4.19232C109.133 4.2605 109.311 4.3159 109.473 4.35851L110.359 4.59715C110.587 4.65681 110.839 4.73919 111.118 4.84431C111.399 4.94942 111.667 5.09289 111.923 5.27471C112.182 5.45368 112.395 5.6838 112.562 5.96505C112.73 6.2463 112.814 6.59147 112.814 7.00056C112.814 7.47215 112.69 7.89829 112.443 8.27897C112.199 8.65965 111.841 8.96221 111.369 9.18664C110.9 9.41107 110.331 9.52329 109.66 9.52329C109.035 9.52329 108.494 9.42243 108.037 9.22073C107.582 9.01902 107.224 8.73777 106.963 8.37698C106.704 8.01618 106.558 7.59715 106.524 7.11988H107.615C107.643 7.44942 107.754 7.72215 107.947 7.93806C108.143 8.15113 108.39 8.31022 108.689 8.41533C108.99 8.5176 109.314 8.56874 109.66 8.56874C110.064 8.56874 110.426 8.5034 110.747 8.37272C111.068 8.23919 111.322 8.05454 111.51 7.81874C111.697 7.5801 111.791 7.30169 111.791 6.98351C111.791 6.69374 111.71 6.45794 111.548 6.27613C111.386 6.09431 111.173 5.94658 110.909 5.83294C110.645 5.71931 110.359 5.61988 110.052 5.53465L108.979 5.22783C108.297 5.03181 107.757 4.75198 107.359 4.38834C106.962 4.02471 106.763 3.54885 106.763 2.96078C106.763 2.47215 106.895 2.04601 107.159 1.68238C107.426 1.3159 107.784 1.03181 108.233 0.830103C108.685 0.625558 109.189 0.523285 109.746 0.523285C110.308 0.523285 110.808 0.624137 111.246 0.825842C111.683 1.02471 112.03 1.29743 112.285 1.64402C112.544 1.99061 112.68 2.38408 112.694 2.82442H111.672ZM9.45113 0.66988H9.6699L15.7565 6.4406L21.843 0.66988H21.8759V6.33801L15.7565 12.1399L9.45113 6.16175V0.66988ZM0.950012 20.5099V20.3025L7.03656 14.5318L0.950012 8.76104V8.72988H6.92836L13.0478 14.5318L6.74246 20.5099H0.950012ZM30.05 8.93728V8.72988H24.2576L17.9522 14.708L24.0717 20.5099H30.05V20.4787L23.9635 14.708L30.05 8.93728ZM32.35 12.9187H112.85V27.4187H32.35V12.9187ZM21.6571 28.5699H21.8759V23.078L15.5705 17.0999L9.45113 22.9017V28.5699H9.48398L15.5705 22.7992L21.6571 28.5699ZM35.5125 16.296V25.0233H41.4102V23.1142H37.8818V16.296H35.5125ZM51.2359 23.1185C51.6138 22.4508 51.8027 21.6312 51.8027 20.6596C51.8027 19.6881 51.6138 18.8699 51.2359 18.2051C50.8581 17.5375 50.3481 17.0332 49.7061 16.6923C49.064 16.3486 48.3481 16.1767 47.5584 16.1767C46.7629 16.1767 46.0442 16.3486 45.4021 16.6923C44.7629 17.0332 44.2544 17.5375 43.8765 18.2051C43.5015 18.8699 43.314 19.6881 43.314 20.6596C43.314 21.6256 43.5015 22.4423 43.8765 23.1099C44.2544 23.7747 44.7629 24.2804 45.4021 24.627C46.0442 24.9707 46.7629 25.1426 47.5584 25.1426C48.3481 25.1426 49.064 24.9721 49.7061 24.6312C50.3481 24.2875 50.8581 23.7832 51.2359 23.1185ZM49.1564 19.3386C49.2956 19.6966 49.3652 20.1369 49.3652 20.6596C49.3652 21.1824 49.2956 21.6241 49.1564 21.9849C49.02 22.3429 48.8169 22.6156 48.547 22.8031C48.28 22.9878 47.9504 23.0801 47.5584 23.0801C47.1663 23.0801 46.8354 22.9878 46.5655 22.8031C46.2984 22.6156 46.0953 22.3429 45.9561 21.9849C45.8197 21.6241 45.7515 21.1824 45.7515 20.6596C45.7515 20.1369 45.8197 19.6966 45.9561 19.3386C46.0953 18.9778 46.2984 18.7051 46.5655 18.5204C46.8354 18.3329 47.1663 18.2392 47.5584 18.2392C47.9504 18.2392 48.28 18.3329 48.547 18.5204C48.8169 18.7051 49.02 18.9778 49.1564 19.3386ZM59.7118 18.7804C59.7914 18.894 59.8496 19.0261 59.8865 19.1767H62.2814C62.236 18.7392 62.1081 18.3372 61.8979 17.9707C61.6877 17.6043 61.4107 17.2875 61.0669 17.0204C60.726 16.7506 60.3326 16.5432 59.8865 16.3983C59.4434 16.2506 58.9632 16.1767 58.4462 16.1767C57.8581 16.1767 57.307 16.2761 56.7928 16.475C56.2786 16.671 55.8255 16.9622 55.4334 17.3486C55.0414 17.7321 54.7345 18.2023 54.513 18.7591C54.2942 19.3159 54.1848 19.9551 54.1848 20.6767C54.1848 21.5971 54.3638 22.3912 54.7218 23.0588C55.0826 23.7264 55.584 24.2406 56.226 24.6014C56.8681 24.9622 57.6138 25.1426 58.4632 25.1426C59.2246 25.1426 59.8993 24.9935 60.4874 24.6952C61.0783 24.394 61.5414 23.9622 61.8766 23.3997C62.2147 22.8344 62.3837 22.154 62.3837 21.3585V20.1483H58.5144V21.8358H60.0991C60.0929 22.0793 60.0334 22.2924 59.9206 22.475C59.8013 22.6682 59.6209 22.8173 59.3794 22.9224C59.1408 23.0275 58.8411 23.0801 58.4803 23.0801C58.0712 23.0801 57.7289 22.9835 57.4533 22.7903C57.1777 22.5971 56.9703 22.3187 56.8311 21.9551C56.6919 21.5915 56.6223 21.154 56.6223 20.6426C56.6223 20.1369 56.6948 19.7051 56.8397 19.3471C56.9874 18.9892 57.2005 18.715 57.4789 18.5247C57.7601 18.3344 58.0996 18.2392 58.4973 18.2392C58.682 18.2392 58.851 18.2605 59.0044 18.3031C59.1607 18.3429 59.297 18.404 59.4135 18.4864C59.5328 18.5659 59.6323 18.6639 59.7118 18.7804ZM64.8085 25.0233H67.1778V16.296H64.8085V25.0233ZM74.0056 18.3585C74.1959 18.5176 74.3025 18.7392 74.3252 19.0233H76.5922C76.5894 18.4523 76.4473 17.9537 76.1661 17.5275C75.8877 17.0986 75.4914 16.7662 74.9772 16.5304C74.463 16.2946 73.8536 16.1767 73.1491 16.1767C72.4587 16.1767 71.8465 16.2932 71.3124 16.5261C70.7812 16.7591 70.365 17.0844 70.0638 17.502C69.7655 17.9168 69.6178 18.4011 69.6206 18.9551C69.6178 19.6369 69.838 20.1753 70.2812 20.5702C70.7272 20.9622 71.3366 21.242 72.1093 21.4096L72.9786 21.5971C73.3025 21.6682 73.5596 21.7449 73.7499 21.8273C73.9402 21.9068 74.0766 21.9977 74.159 22.1C74.2442 22.1994 74.2882 22.3159 74.2911 22.4494C74.2882 22.5915 74.2428 22.7179 74.1547 22.8287C74.0667 22.9395 73.9374 23.0261 73.7669 23.0886C73.5965 23.1511 73.3848 23.1824 73.132 23.1824C72.8309 23.1824 72.5709 23.1355 72.3522 23.0418C72.1363 22.948 71.9687 22.8102 71.8493 22.6284C71.73 22.4466 71.6632 22.2221 71.6491 21.9551H69.3991C69.4019 22.6852 69.5581 23.2846 69.8678 23.7534C70.1803 24.2193 70.6178 24.5645 71.1803 24.7889C71.7456 25.0133 72.4076 25.1256 73.1661 25.1256C73.9047 25.1256 74.5368 25.0219 75.0624 24.8145C75.5908 24.6071 75.9971 24.3045 76.2812 23.9068C76.5652 23.5091 76.7087 23.0233 76.7116 22.4494C76.7087 22.117 76.6547 21.8102 76.5496 21.529C76.4473 21.2477 76.2868 20.9949 76.0681 20.7704C75.8493 20.5432 75.5681 20.3457 75.2243 20.1781C74.8806 20.0105 74.4672 19.8756 73.9843 19.7733L73.2684 19.6199C73.061 19.5773 72.882 19.529 72.7314 19.475C72.5809 19.421 72.4573 19.3614 72.3607 19.296C72.2641 19.2278 72.1931 19.1525 72.1476 19.0702C72.105 18.9849 72.0866 18.8898 72.0922 18.7846C72.0951 18.6568 72.1334 18.5432 72.2073 18.4437C72.2812 18.3443 72.3948 18.2662 72.5482 18.2094C72.7044 18.1497 72.9047 18.1199 73.1491 18.1199C73.5326 18.1199 73.8181 18.1994 74.0056 18.3585ZM78.6942 16.296V18.2051H81.3192V25.0233H83.6544V18.2051H86.2794V16.296H78.6942ZM88.4911 25.0233H90.8604V16.296H88.4911V25.0233ZM99.0476 19.5687H101.451C101.406 19.0261 101.276 18.5446 101.063 18.1241C100.85 17.7037 100.569 17.35 100.219 17.0631C99.8701 16.7733 99.4638 16.5531 99.0007 16.4025C98.5377 16.252 98.0306 16.1767 97.4794 16.1767C96.6953 16.1767 95.9851 16.3486 95.3488 16.6923C94.7124 17.0332 94.2067 17.5375 93.8317 18.2051C93.4567 18.8699 93.2692 19.6881 93.2692 20.6596C93.2692 21.6256 93.4524 22.4423 93.8189 23.1099C94.1882 23.7775 94.6897 24.2832 95.3232 24.627C95.9596 24.9707 96.6783 25.1426 97.4794 25.1426C98.1186 25.1426 98.6797 25.0446 99.1627 24.8486C99.6456 24.6525 100.05 24.394 100.377 24.073C100.707 23.7491 100.961 23.3969 101.14 23.0162C101.319 22.6327 101.423 22.2562 101.451 21.8869L99.0476 21.8699C99.0192 22.0574 98.9638 22.2264 98.8814 22.377C98.8019 22.5247 98.6982 22.6511 98.5703 22.7562C98.4425 22.8614 98.2919 22.9423 98.1186 22.9991C97.9453 23.0531 97.7493 23.0801 97.5306 23.0801C97.1471 23.0801 96.8189 22.9906 96.5462 22.8116C96.2735 22.6298 96.0647 22.3599 95.9198 22.002C95.7777 21.6412 95.7067 21.1937 95.7067 20.6596C95.7067 20.154 95.7763 19.7207 95.9155 19.3599C96.0576 18.9991 96.2649 18.7221 96.5377 18.529C96.8132 18.3358 97.1499 18.2392 97.5476 18.2392C97.7749 18.2392 97.978 18.2719 98.157 18.3372C98.336 18.3997 98.488 18.4906 98.613 18.6099C98.7408 18.7264 98.8402 18.8656 98.9113 19.0275C98.9851 19.1895 99.0306 19.3699 99.0476 19.5687ZM108.231 18.3585C108.421 18.5176 108.528 18.7392 108.55 19.0233H110.818C110.815 18.4523 110.673 17.9537 110.391 17.5275C110.113 17.0986 109.717 16.7662 109.202 16.5304C108.688 16.2946 108.079 16.1767 107.374 16.1767C106.684 16.1767 106.072 16.2932 105.538 16.5261C105.006 16.7591 104.59 17.0844 104.289 17.502C103.991 17.9168 103.843 18.4011 103.846 18.9551C103.843 19.6369 104.063 20.1753 104.506 20.5702C104.952 20.9622 105.562 21.242 106.335 21.4096L107.204 21.5971C107.528 21.6682 107.785 21.7449 107.975 21.8273C108.166 21.9068 108.302 21.9977 108.384 22.1C108.47 22.1994 108.514 22.3159 108.516 22.4494C108.514 22.5915 108.468 22.7179 108.38 22.8287C108.292 22.9395 108.163 23.0261 107.992 23.0886C107.822 23.1511 107.61 23.1824 107.357 23.1824C107.056 23.1824 106.796 23.1355 106.577 23.0418C106.362 22.948 106.194 22.8102 106.075 22.6284C105.955 22.4466 105.889 22.2221 105.874 21.9551H103.624C103.627 22.6852 103.783 23.2846 104.093 23.7534C104.406 24.2193 104.843 24.5645 105.406 24.7889C105.971 25.0133 106.633 25.1256 107.391 25.1256C108.13 25.1256 108.762 25.0219 109.288 24.8145C109.816 24.6071 110.222 24.3045 110.506 23.9068C110.791 23.5091 110.934 23.0233 110.937 22.4494C110.934 22.117 110.88 21.8102 110.775 21.529C110.673 21.2477 110.512 20.9949 110.293 20.7704C110.075 20.5432 109.793 20.3457 109.45 20.1781C109.106 20.0105 108.693 19.8756 108.21 19.7733L107.494 19.6199C107.286 19.5773 107.107 19.529 106.957 19.475C106.806 19.421 106.683 19.3614 106.586 19.296C106.489 19.2278 106.418 19.1525 106.373 19.0702C106.33 18.9849 106.312 18.8898 106.318 18.7846C106.32 18.6568 106.359 18.5432 106.433 18.4437C106.506 18.3443 106.62 18.2662 106.774 18.2094C106.93 18.1497 107.13 18.1199 107.374 18.1199C107.758 18.1199 108.043 18.1994 108.231 18.3585Z" fill="#F97316"/>
</svg>
